<svg id="visual" viewBox="0 0 1500 900" width="1500" height="900" xmlns="http://www.w3.org/2000/svg" xmlns:xlink="http://www.w3.org/1999/xlink" version="1.1"><rect x="0" y="0" width="1500" height="900" fill="#cec7fe"></rect><path d="M0 572L13.8 610.5C27.7 649 55.3 726 83.2 743.2C111 760.3 139 717.7 166.8 697.5C194.7 677.3 222.3 679.7 250 678.3C277.7 677 305.3 672 333.2 648.7C361 625.3 389 583.7 416.8 589.5C444.7 595.3 472.3 648.7 500 680.8C527.7 713 555.3 724 583.2 718.8C611 713.7 639 692.3 666.8 668.2C694.7 644 722.3 617 750 614.2C777.7 611.3 805.3 632.7 833.2 626.5C861 620.3 889 586.7 916.8 573.3C944.7 560 972.3 567 1000 580.5C1027.7 594 1055.3 614 1083.2 652.5C1111 691 1139 748 1166.8 744.3C1194.7 740.7 1222.3 676.3 1250 655.3C1277.7 634.3 1305.3 656.7 1333.2 658C1361 659.3 1389 639.7 1416.8 621.5C1444.7 603.3 1472.3 586.7 1486.2 578.3L1500 570L1500 901L1486.2 901C1472.3 901 1444.7 901 1416.8 901C1389 901 1361 901 1333.2 901C1305.3 901 1277.7 901 1250 901C1222.3 901 1194.7 901 1166.8 901C1139 901 1111 901 1083.2 901C1055.3 901 1027.7 901 1000 901C972.3 901 944.7 901 916.8 901C889 901 861 901 833.2 901C805.3 901 777.7 901 750 901C722.3 901 694.7 901 666.8 901C639 901 611 901 583.2 901C555.3 901 527.7 901 500 901C472.3 901 444.7 901 416.8 901C389 901 361 901 333.2 901C305.3 901 277.7 901 250 901C222.3 901 194.7 901 166.8 901C139 901 111 901 83.2 901C55.3 901 27.7 901 13.8 901L0 901Z" fill="#6f0f37" stroke-linecap="round" stroke-linejoin="miter"></path></svg>