<svg id="visual" viewBox="0 0 960 540" width="960" height="540" xmlns="http://www.w3.org/2000/svg" xmlns:xlink="http://www.w3.org/1999/xlink" version="1.1"><rect x="0" y="0" width="960" height="540" fill="#DFD1F3"></rect><path d="M0 465L8 456.3C16 447.7 32 430.3 48 431.3C64 432.3 80 451.7 96 446.2C112 440.7 128 410.3 144 387.2C160 364 176 348 192 364.7C208 381.3 224 430.7 240 430.7C256 430.7 272 381.3 288 361.5C304 341.7 320 351.3 336 360.3C352 369.3 368 377.7 384 389.5C400 401.3 416 416.7 432 412.7C448 408.7 464 385.3 480 391.2C496 397 512 432 528 429.2C544 426.3 560 385.7 576 374.5C592 363.3 608 381.7 624 396C640 410.3 656 420.7 672 411.3C688 402 704 373 720 377.2C736 381.3 752 418.7 768 435.2C784 451.7 800 447.3 816 430.7C832 414 848 385 864 389.8C880 394.7 896 433.3 912 454C928 474.7 944 477.3 952 478.7L960 480L960 541L952 541C944 541 928 541 912 541C896 541 880 541 864 541C848 541 832 541 816 541C800 541 784 541 768 541C752 541 736 541 720 541C704 541 688 541 672 541C656 541 640 541 624 541C608 541 592 541 576 541C560 541 544 541 528 541C512 541 496 541 480 541C464 541 448 541 432 541C416 541 400 541 384 541C368 541 352 541 336 541C320 541 304 541 288 541C272 541 256 541 240 541C224 541 208 541 192 541C176 541 160 541 144 541C128 541 112 541 96 541C80 541 64 541 48 541C32 541 16 541 8 541L0 541Z" fill="#651530" stroke-linecap="round" stroke-linejoin="miter"></path></svg>