<svg id="visual" viewBox="0 0 1250 540" width="1250" height="540" xmlns="http://www.w3.org/2000/svg" xmlns:xlink="http://www.w3.org/1999/xlink" version="1.1"><rect x="0" y="0" width="1250" height="540" fill="#6f0f37"></rect><path d="M0 343L11.5 366.2C23 389.3 46 435.7 69.2 446C92.3 456.3 115.7 430.7 138.8 418.5C162 406.3 185 407.7 208.2 406.8C231.3 406 254.7 403 277.8 389C301 375 324 350 347.2 353.5C370.3 357 393.7 389 416.8 408.3C440 427.7 463 434.3 486.2 431.2C509.3 428 532.7 415 555.8 400.5C579 386 602 370 625 368.3C648 366.7 671 379.3 694.2 375.5C717.3 371.7 740.7 351.3 763.8 343.3C787 335.3 810 339.7 833.2 347.8C856.3 356 879.7 368 902.8 391C926 414 949 448 972.2 445.8C995.3 443.7 1018.7 405.3 1041.8 392.8C1065 380.3 1088 393.7 1111.2 394.5C1134.3 395.3 1157.7 383.7 1180.8 372.7C1204 361.7 1227 351.3 1238.5 346.2L1250 341L1250 541L1238.5 541C1227 541 1204 541 1180.8 541C1157.7 541 1134.3 541 1111.2 541C1088 541 1065 541 1041.8 541C1018.7 541 995.3 541 972.2 541C949 541 926 541 902.8 541C879.7 541 856.3 541 833.2 541C810 541 787 541 763.8 541C740.7 541 717.3 541 694.2 541C671 541 648 541 625 541C602 541 579 541 555.8 541C532.7 541 509.3 541 486.2 541C463 541 440 541 416.8 541C393.7 541 370.3 541 347.2 541C324 541 301 541 277.8 541C254.7 541 231.3 541 208.2 541C185 541 162 541 138.8 541C115.7 541 92.3 541 69.2 541C46 541 23 541 11.5 541L0 541Z" fill="#cec7fe" stroke-linecap="round" stroke-linejoin="miter"></path></svg>