<svg id="visual" viewBox="0 0 1500 600" width="1500" height="600" xmlns="http://www.w3.org/2000/svg" xmlns:xlink="http://www.w3.org/1999/xlink" version="1.1"><rect x="0" y="0" width="1500" height="600" fill="#6f0f37"></rect><path d="M0 382L9.7 403.7C19.3 425.3 38.7 468.7 57.8 480C77 491.3 96 470.7 115.2 463.8C134.3 457 153.7 464 173 472.3C192.3 480.7 211.7 490.3 230.8 483.8C250 477.3 269 454.7 288.2 455.8C307.3 457 326.7 482 346 469.8C365.3 457.7 384.7 408.3 404 402.3C423.3 396.3 442.7 433.7 461.8 441.7C481 449.7 500 428.3 519.2 418.5C538.3 408.7 557.7 410.3 577 428.5C596.3 446.7 615.7 481.3 634.8 480.5C654 479.7 673 443.3 692.2 424.3C711.3 405.3 730.7 403.7 750 407.8C769.3 412 788.7 422 807.8 416.5C827 411 846 390 865.2 402C884.3 414 903.7 459 923 460C942.3 461 961.7 418 980.8 399C1000 380 1019 385 1038.2 397C1057.3 409 1076.7 428 1096 423.7C1115.3 419.3 1134.7 391.7 1154 401C1173.3 410.3 1192.7 456.7 1211.8 472.7C1231 488.7 1250 474.3 1269.2 443.2C1288.3 412 1307.7 364 1327 359C1346.3 354 1365.7 392 1384.8 394.3C1404 396.7 1423 363.3 1442.2 356.2C1461.3 349 1480.7 368 1490.3 377.5L1500 387L1500 601L1490.3 601C1480.7 601 1461.3 601 1442.2 601C1423 601 1404 601 1384.8 601C1365.7 601 1346.3 601 1327 601C1307.7 601 1288.3 601 1269.2 601C1250 601 1231 601 1211.8 601C1192.7 601 1173.3 601 1154 601C1134.7 601 1115.3 601 1096 601C1076.7 601 1057.3 601 1038.2 601C1019 601 1000 601 980.8 601C961.7 601 942.3 601 923 601C903.7 601 884.3 601 865.2 601C846 601 827 601 807.8 601C788.7 601 769.3 601 750 601C730.7 601 711.3 601 692.2 601C673 601 654 601 634.8 601C615.7 601 596.3 601 577 601C557.7 601 538.3 601 519.2 601C500 601 481 601 461.8 601C442.7 601 423.3 601 404 601C384.7 601 365.3 601 346 601C326.7 601 307.3 601 288.2 601C269 601 250 601 230.8 601C211.7 601 192.3 601 173 601C153.7 601 134.3 601 115.2 601C96 601 77 601 57.8 601C38.7 601 19.3 601 9.7 601L0 601Z" fill="#dbd6ff" stroke-linecap="round" stroke-linejoin="miter"></path></svg>