<svg id="visual" viewBox="0 0 1550 800" width="1550" height="800" xmlns="http://www.w3.org/2000/svg" xmlns:xlink="http://www.w3.org/1999/xlink" version="1.1"><rect x="0" y="0" width="1550" height="800" fill="#cec7fe"></rect><path d="M0 508L14.3 542.3C28.7 576.7 57.3 645.3 86 660.7C114.7 676 143.3 638 172 620C200.7 602 229.3 604 258 602.8C286.7 601.7 315.3 597.3 344.2 576.7C373 556 402 519 430.8 524.2C459.7 529.3 488.3 576.7 517 605.2C545.7 633.7 574.3 643.3 603 638.7C631.7 634 660.3 615 689 593.7C717.7 572.3 746.3 548.7 775 546.3C803.7 544 832.3 563 861 557.5C889.7 552 918.3 522 947 510C975.7 498 1004.3 504 1033 516C1061.7 528 1090.3 546 1119.2 580.2C1148 614.3 1177 664.7 1205.8 661.3C1234.7 658 1263.3 601 1292 582.3C1320.7 563.7 1349.3 583.3 1378 584.5C1406.7 585.7 1435.3 568.3 1464 552.2C1492.7 536 1521.3 521 1535.7 513.5L1550 506L1550 801L1535.7 801C1521.3 801 1492.7 801 1464 801C1435.3 801 1406.7 801 1378 801C1349.3 801 1320.7 801 1292 801C1263.3 801 1234.7 801 1205.8 801C1177 801 1148 801 1119.2 801C1090.3 801 1061.7 801 1033 801C1004.3 801 975.7 801 947 801C918.3 801 889.7 801 861 801C832.3 801 803.7 801 775 801C746.3 801 717.7 801 689 801C660.3 801 631.7 801 603 801C574.3 801 545.7 801 517 801C488.3 801 459.7 801 430.8 801C402 801 373 801 344.2 801C315.3 801 286.7 801 258 801C229.3 801 200.7 801 172 801C143.3 801 114.7 801 86 801C57.3 801 28.7 801 14.3 801L0 801Z" fill="#6f0f37" stroke-linecap="round" stroke-linejoin="miter"></path></svg>