<svg id="visual" viewBox="0 0 1500 900" width="1500" height="900" xmlns="http://www.w3.org/2000/svg" xmlns:xlink="http://www.w3.org/1999/xlink" version="1.1"><rect x="0" y="0" width="1500" height="900" fill="#cec7fe"></rect><path d="M0 326L13.8 287.5C27.7 249 55.3 172 83.2 154.8C111 137.7 139 180.3 166.8 200.5C194.7 220.7 222.3 218.3 250 219.7C277.7 221 305.3 226 333.2 249.3C361 272.7 389 314.3 416.8 308.5C444.7 302.7 472.3 249.3 500 217.2C527.7 185 555.3 174 583.2 179.2C611 184.3 639 205.7 666.8 229.8C694.7 254 722.3 281 750 283.8C777.7 286.7 805.3 265.3 833.2 271.5C861 277.7 889 311.3 916.8 324.7C944.7 338 972.3 331 1000 317.5C1027.7 304 1055.3 284 1083.2 245.5C1111 207 1139 150 1166.8 153.7C1194.7 157.3 1222.3 221.7 1250 242.7C1277.7 263.7 1305.3 241.3 1333.2 240C1361 238.7 1389 258.3 1416.8 276.5C1444.7 294.7 1472.3 311.3 1486.2 319.7L1500 328L1500 0L1486.2 0C1472.3 0 1444.7 0 1416.8 0C1389 0 1361 0 1333.2 0C1305.3 0 1277.7 0 1250 0C1222.3 0 1194.7 0 1166.8 0C1139 0 1111 0 1083.2 0C1055.3 0 1027.7 0 1000 0C972.3 0 944.7 0 916.8 0C889 0 861 0 833.2 0C805.3 0 777.7 0 750 0C722.3 0 694.7 0 666.8 0C639 0 611 0 583.2 0C555.3 0 527.7 0 500 0C472.3 0 444.7 0 416.8 0C389 0 361 0 333.2 0C305.3 0 277.7 0 250 0C222.3 0 194.7 0 166.8 0C139 0 111 0 83.2 0C55.3 0 27.7 0 13.8 0L0 0Z" fill="#6f0f37" stroke-linecap="round" stroke-linejoin="miter"></path></svg>