<svg id="visual" viewBox="0 0 1550 800" width="1550" height="800" xmlns="http://www.w3.org/2000/svg" xmlns:xlink="http://www.w3.org/1999/xlink" version="1.1"><rect x="0" y="0" width="1550" height="800" fill="#6f0f37"></rect><path d="M0 290L14.3 255.7C28.7 221.3 57.3 152.7 86 137.3C114.7 122 143.3 160 172 178C200.7 196 229.3 194 258 195.2C286.7 196.3 315.3 200.7 344.2 221.3C373 242 402 279 430.8 273.8C459.7 268.7 488.3 221.3 517 192.8C545.7 164.3 574.3 154.7 603 159.3C631.7 164 660.3 183 689 204.3C717.7 225.7 746.3 249.3 775 251.7C803.7 254 832.3 235 861 240.5C889.7 246 918.3 276 947 288C975.7 300 1004.3 294 1033 282C1061.7 270 1090.3 252 1119.2 217.8C1148 183.7 1177 133.3 1205.8 136.7C1234.7 140 1263.3 197 1292 215.7C1320.7 234.3 1349.3 214.7 1378 213.5C1406.7 212.3 1435.3 229.7 1464 245.8C1492.7 262 1521.3 277 1535.7 284.5L1550 292L1550 0L1535.7 0C1521.3 0 1492.7 0 1464 0C1435.3 0 1406.7 0 1378 0C1349.3 0 1320.7 0 1292 0C1263.3 0 1234.7 0 1205.8 0C1177 0 1148 0 1119.2 0C1090.3 0 1061.7 0 1033 0C1004.3 0 975.7 0 947 0C918.3 0 889.7 0 861 0C832.3 0 803.7 0 775 0C746.3 0 717.7 0 689 0C660.3 0 631.7 0 603 0C574.3 0 545.7 0 517 0C488.3 0 459.7 0 430.8 0C402 0 373 0 344.2 0C315.3 0 286.7 0 258 0C229.3 0 200.7 0 172 0C143.3 0 114.7 0 86 0C57.3 0 28.7 0 14.3 0L0 0Z" fill="#cec7fe" stroke-linecap="round" stroke-linejoin="miter"></path></svg>